<?xml version="1.0" encoding="utf-8"?>
<!-- Generator: Adobe Illustrator 25.2.0, SVG Export Plug-In . SVG Version: 6.00 Build 0)  -->
<svg version="1.1" id="Capa_1" xmlns="http://www.w3.org/2000/svg" xmlns:xlink="http://www.w3.org/1999/xlink" x="0px" y="0px"
	 width="100px" height="90px" viewBox="0 0 100 90" style="enable-background:new 0 0 100 90;" xml:space="preserve">
<style type="text/css">
	.st0{fill:#FFFFFF;}
</style>
<g>
	<g>
		<path d="M75.4,69c-10.1,0.7-19.8,1.3-29.4,1.9c-2.2,0.1-4.4,0.4-6.7,0.5c-2.9,0.1-5.7-0.2-8.3-1.6c-3.1-1.7-4.5-4.8-3.6-8.3
			c0.4-1.6,1.1-3,1.7-4.5c0.2-0.4,0.3-0.8,0.1-1.3c-3.3-10.3-6.7-20.7-10-31c-1.7-5.4-3.5-10.8-5.2-16.3c-0.2-0.6-0.4-0.7-1.1-0.7
			c-2.9,0-5.8,0-8.6,0C1.9,7.8,0,6.1,0,3.9C0,1.7,1.8,0,4.3,0c4.1,0,8.3,0,12.4,0c2.2,0,3.6,1,4.3,3c1.1,3.3,2.1,6.6,3.2,9.9
			c0.2,0.5,0.4,0.7,1,0.7c16.1,0,32.3,0,48.4,0c7.3,0,14.6,0,21.8,0c3.3,0,5.1,2,4.5,5c-0.9,4.5-1.9,9-2.8,13.4
			c-1.4,6.6-2.8,13.2-4.1,19.9c-0.4,1.9-1.7,3.1-3.8,3.3c-8.6,1-17.3,1.9-25.9,2.9c-8.8,1-17.6,2-26.4,3c-0.6,0.1-1.3,0.1-1.9,0.2
			c-0.3,0.1-0.6,0.3-0.7,0.5c-0.9,2.3-0.4,3.1,2.2,3.5c2.3,0.4,4.7-0.1,7-0.2c8.6-0.6,17.3-1.2,25.9-1.7c6-0.3,12-0.3,17.9-0.4
			c0.4,0,0.9,0,1.3,0.1c1.8,0.2,3,1.5,3,3.2c-0.1,1.6-1.5,2.9-3.3,2.9c-1,0-2.1-0.1-3.1-0.1c-1.7,0-3.4,0-5.1,0
			C78.4,69,76.7,69,75.4,69z M47.5,33.7c0-4.2,0-8.3,0-12.4c-6.9,0-13.7,0-20.5,0c0.1,0.3,0.1,0.5,0.2,0.7c1.2,3.7,2.4,7.4,3.6,11.2
			c0.1,0.5,0.4,0.6,0.9,0.6c4.6,0,9.2,0,13.8,0C46.1,33.7,46.8,33.7,47.5,33.7z M51.6,51.4c0.2,0,0.3,0,0.4,0
			c5.4-0.6,10.7-1.2,16.1-1.8c0.6-0.1,0.6-0.4,0.6-0.8c0-3.4,0-6.9,0-10.3c0-0.4,0-0.7-0.1-1.1c-5.7,0-11.4,0-17.1,0
			C51.6,42.1,51.6,46.8,51.6,51.4z M68.7,21.3c-5.7,0-11.4,0-17.1,0c0,4.2,0,8.2,0,12.3c5.7,0,11.4,0,17.1,0
			C68.7,29.5,68.7,25.5,68.7,21.3z M90.8,21.3c-6.1,0-12,0-18,0c0,4.2,0,8.2,0,12.4c5,0,10,0,15,0c0.2,0,0.5-0.3,0.5-0.4
			c0.2-0.6,0.3-1.2,0.4-1.8C89.4,28.1,90,24.7,90.8,21.3z M32.2,37.4c0,0.2,0,0.3,0.1,0.3c1.6,4.9,3.2,9.9,4.7,14.8
			c0.1,0.4,0.4,0.5,0.8,0.5c1.6-0.2,3.2-0.4,4.8-0.5c1.6-0.2,3.3-0.4,4.9-0.6c0-4.9,0-9.7,0-14.5C42.4,37.4,37.3,37.4,32.2,37.4z
			 M72.8,37.4c0,3.9,0,7.8,0,11.6c0.2,0,0.3,0,0.4,0c3.9-0.4,7.7-0.9,11.6-1.3c0.5-0.1,0.6-0.3,0.6-0.7c0.4-2.1,0.9-4.2,1.3-6.3
			c0.2-1.1,0.5-2.2,0.7-3.4C82.5,37.4,77.6,37.4,72.8,37.4z"/>
		<path d="M33.7,90c-4.6,0-8.3-3.5-8.3-7.8c0-4.2,3.8-7.7,8.4-7.7c4.6,0,8.4,3.5,8.3,7.8C42.1,86.6,38.3,90,33.7,90z"/>
		<path d="M81.4,74.5c4.7,0.1,8.3,3.5,8.2,7.9c-0.1,4.2-3.9,7.6-8.5,7.6c-4.6-0.1-8.3-3.6-8.2-7.9C73,77.8,76.8,74.4,81.4,74.5z"/>
		<path class="st0" d="M47.5,33.7c-0.7,0-1.4,0-2.1,0c-4.6,0-9.2,0-13.8,0c-0.5,0-0.7-0.1-0.9-0.6c-1.2-3.7-2.4-7.5-3.6-11.2
			c-0.1-0.2-0.1-0.4-0.2-0.7c6.9,0,13.7,0,20.5,0C47.5,25.4,47.5,29.5,47.5,33.7z"/>
		<path class="st0" d="M51.6,51.4c0-4.7,0-9.3,0-14c5.7,0,11.3,0,17.1,0c0,0.4,0.1,0.8,0.1,1.1c0,3.4,0,6.9,0,10.3
			c0,0.4,0,0.7-0.6,0.8c-5.4,0.6-10.7,1.2-16.1,1.8C51.9,51.5,51.8,51.4,51.6,51.4z"/>
		<path class="st0" d="M68.7,21.3c0,4.1,0,8.2,0,12.3c-5.7,0-11.4,0-17.1,0c0-4.1,0-8.2,0-12.3C57.3,21.3,63,21.3,68.7,21.3z"/>
		<path class="st0" d="M90.8,21.3c-0.7,3.4-1.4,6.7-2.1,10.1c-0.1,0.6-0.2,1.2-0.4,1.8c-0.1,0.2-0.3,0.4-0.5,0.4c-5,0-9.9,0-15,0
			c0-4.1,0-8.2,0-12.4C78.7,21.3,84.7,21.3,90.8,21.3z"/>
		<path class="st0" d="M32.2,37.4c5.2,0,10.2,0,15.3,0c0,4.8,0,9.6,0,14.5c-1.7,0.2-3.3,0.4-4.9,0.6c-1.6,0.2-3.2,0.3-4.8,0.5
			c-0.5,0.1-0.7,0-0.8-0.5c-1.6-4.9-3.2-9.9-4.7-14.8C32.2,37.7,32.2,37.6,32.2,37.4z"/>
		<path class="st0" d="M72.8,37.4c4.9,0,9.7,0,14.6,0c-0.2,1.2-0.5,2.3-0.7,3.4c-0.4,2.1-0.9,4.2-1.3,6.3c-0.1,0.4-0.1,0.6-0.6,0.7
			c-3.9,0.4-7.7,0.9-11.6,1.3c-0.1,0-0.3,0-0.4,0C72.8,45.2,72.8,41.4,72.8,37.4z"/>
	</g>
</g>
</svg>
